<svg xmlns="http://www.w3.org/2000/svg" xmlns:xlink="http://www.w3.org/1999/xlink" viewBox="0 0 512 512"><defs><style>.cls-1{fill:url(#linear-gradient);}.cls-2{fill:#fff;}.cls-3{fill:none;stroke:#fff;stroke-linecap:round;stroke-miterlimit:10;stroke-width:80px;}</style><linearGradient id="linear-gradient" x1="256" x2="256" y2="512" gradientUnits="userSpaceOnUse"><stop offset="0.41" stop-color="#101d2e"/><stop offset="1" stop-color="#1382b3"/></linearGradient></defs><title>logo</title><g id="Layer_1" data-name="Layer 1"><circle class="cls-1" cx="256" cy="256" r="256"/></g><g id="Layer_2" data-name="Layer 2"><circle class="cls-2" cx="341.4" cy="191.13" r="49.25"/><path class="cls-2" d="M341.4,126.27a64.87,64.87,0,1,1-64.87,64.86,64.87,64.87,0,0,1,64.87-64.86m0-33a97.87,97.87,0,1,0,97.87,97.86A98,98,0,0,0,341.4,93.27Z"/><path class="cls-2" d="M177,300a55,55,0,1,1-55,55,55,55,0,0,1,55-55m0-17a72,72,0,1,0,72,72,72.08,72.08,0,0,0-72-72Z"/><polygon class="cls-2" points="243 193.5 180 283.5 227 315.5 249 353 338 289.5 243 193.5"/><line class="cls-3" x1="177.02" y1="355.01" x2="-28.39" y2="271.97"/><image width="235" height="234" transform="translate(293.4 143.13) scale(0.41 0.41)" xlink:href="pinwheel.png"/></g></svg>